<?xml version="1.0" encoding="iso-8859-1"?>
<!-- Generator: Adobe Illustrator 17.1.0, SVG Export Plug-In . SVG Version: 6.00 Build 0)  -->
<!DOCTYPE svg PUBLIC "-//W3C//DTD SVG 1.1//EN" "http://www.w3.org/Graphics/SVG/1.1/DTD/svg11.dtd">
<svg version="1.1" id="Capa_1" xmlns="http://www.w3.org/2000/svg" xmlns:xlink="http://www.w3.org/1999/xlink" x="0px" y="0px"
	 viewBox="0 0 368.411 368.411" style="enable-background:new 0 0 368.411 368.411;" xml:space="preserve">
<path id="XMLID_638_" d="M175.206,14.478V9c0-4.971,4.029-9,9-9s9,4.029,9,9v5.478c0,4.971-4.029,9-9,9
	S175.206,19.448,175.206,14.478z M88.17,42.618c1.667,2.889,4.692,4.504,7.804,4.504c1.526,0,3.073-0.389,4.489-1.206
	c4.306-2.484,5.783-7.988,3.299-12.293l-2.737-4.744c-2.485-4.306-7.99-5.782-12.293-3.299c-4.306,2.484-5.782,7.988-3.299,12.293
	L88.17,42.618z M267.945,45.916c1.417,0.818,2.964,1.207,4.491,1.207c3.11,0,6.136-1.615,7.803-4.502l2.739-4.744
	c2.485-4.305,1.01-9.809-3.295-12.294c-4.304-2.484-9.808-1.009-12.294,3.295l-2.739,4.744
	C262.165,37.926,263.64,43.43,267.945,45.916z M337.049,111.719c1.527,0,3.075-0.389,4.493-1.208l4.744-2.739
	c4.304-2.486,5.778-7.991,3.292-12.295c-2.485-4.304-7.989-5.779-12.294-3.292l-4.744,2.739c-4.304,2.486-5.778,7.99-3.293,12.295
	C330.914,110.105,333.938,111.719,337.049,111.719z M360.444,271.334c-11.687,23.162-44.345,38.724-81.266,38.724
	c-25.31,0-49.019-7.3-65.137-19.799c-9.233,6.328-18.981,10.402-28.639,11.647c-0.44,0.057-0.881,0.078-1.307,0.074
	c-0.36-0.003-0.722-0.027-1.084-0.074c-9.659-1.246-19.407-5.32-28.64-11.647c-16.118,12.5-39.825,19.799-65.137,19.799
	c-36.921,0-69.579-15.562-81.266-38.724c-1.286-2.549-1.287-5.558,0-8.108c8.623-17.094,28.342-30.056,53.295-35.674
	c-12.948-18.39-17.676-40.12-11.812-58.709c0.718-2.275,2.31-4.172,4.425-5.274c14.788-7.704,33.543-8.262,51.8-1.864
	c2.71-8.978,6.975-16.791,12.754-22.881c1.977-2.083,4.832-3.097,7.679-2.73c4.721,0.609,9.462,1.894,14.156,3.787
	c9.522-20.125,23.558-35.133,40.185-42.763c2.382-1.094,5.124-1.094,7.507,0c16.621,7.626,30.652,22.624,40.177,42.736
	c4.694-1.877,9.44-3.149,14.169-3.76c2.85-0.367,5.702,0.647,7.679,2.73c5.78,6.09,10.043,13.902,12.754,22.879
	c18.258-6.397,37.011-5.837,51.798,1.865c2.115,1.102,3.707,2.999,4.425,5.273c5.866,18.59,1.138,40.319-11.811,58.709
	c24.954,5.618,44.673,18.58,53.296,35.674C361.73,265.776,361.73,268.785,360.444,271.334z M251.471,245.804
	c9.773-2.428,19.482-7.429,28.034-14.604c17.468-14.656,26.617-35.995,23.229-53.241c-10.572-4.106-23.758-3.469-36.752,1.745
	c1.248,16.804-1.782,35.812-9.268,54.52C255.123,238.201,253.368,242.068,251.471,245.804z M156.047,148.65
	c10.368,7.381,20.039,17.597,28.14,29.818c8.142-12.352,17.803-22.552,28.146-29.89c-6.932-14.977-16.854-26.691-28.128-33.164
	C172.913,121.898,162.978,133.639,156.047,148.65z M88.904,231.199c8.551,7.176,18.263,12.179,28.038,14.606
	c-1.898-3.738-3.651-7.603-5.244-11.583c-7.485-18.706-10.515-37.715-9.268-54.518c-12.994-5.216-26.18-5.853-36.754-1.747
	C62.288,195.204,71.437,216.543,88.904,231.199z M140.153,278.324c-3.876-3.899-7.578-8.204-11.048-12.855
	c-17.835-0.305-36.441-7.615-51.772-20.481c-0.645-0.541-1.279-1.087-1.905-1.642c-21.921,2.716-40.293,11.751-48.937,23.932
	c10.509,14.781,35.355,24.781,62.741,24.781C108.675,292.059,127.271,286.932,140.153,278.324z M180.708,210.466
	c-8.969-22.416-23.965-40.902-39.728-50.232c-0.44-0.208-0.856-0.449-1.247-0.717c-3.73-2.089-7.493-3.658-11.225-4.642
	c-3.731,5.335-6.229,12.16-7.472,19.935c-0.032,0.474-0.102,0.948-0.211,1.418c-2.077,15.016,0.401,33.358,7.583,51.309
	c7.249,18.115,18.432,33.663,30.777,43.887c0.288,0.208,0.566,0.435,0.833,0.681c6.689,5.388,13.698,9.207,20.59,11.024
	C191.67,267.314,191.891,238.415,180.708,210.466z M240.002,227.535c7.18-17.943,9.658-36.28,7.586-51.293
	c-0.113-0.482-0.185-0.968-0.217-1.453c-1.243-7.767-3.741-14.586-7.47-19.917c-3.676,0.966-7.388,2.499-11.074,4.539
	c-0.487,0.351-1.017,0.657-1.584,0.91c-12.243,7.277-24.058,20.089-32.953,36.223c1.102,2.366,2.146,4.779,3.129,7.236
	c10.206,25.506,12.13,51.572,6.221,71.848c1.606-1.09,3.201-2.275,4.777-3.545c0.25-0.229,0.51-0.441,0.779-0.636
	C221.552,261.222,232.748,245.664,240.002,227.535z M341.919,267.278c-8.644-12.181-27.017-21.215-48.939-23.932
	c-0.625,0.554-1.261,1.102-1.905,1.642c-15.331,12.864-33.936,20.174-51.769,20.48c-3.47,4.652-7.172,8.956-11.048,12.856
	c12.883,8.606,31.48,13.734,50.92,13.734C306.563,292.059,331.41,282.059,341.919,267.278z M271.453,333.844
	c-3.748-3.265-9.433-2.872-12.698,0.875c-5.675,6.516-32.557,15.692-74.549,15.692c-41.993,0-68.875-9.176-74.55-15.692
	c-3.265-3.747-8.95-4.14-12.698-0.875c-3.748,3.265-4.14,8.95-0.875,12.698c14.061,16.142,56.259,21.869,88.124,21.869
	c31.864,0,74.062-5.728,88.123-21.869C275.593,342.793,275.201,337.109,271.453,333.844z M65.893,143.413
	c4.781,1.347,9.755-1.438,11.103-6.222c13.454-47.752,57.54-81.103,107.21-81.103c49.67,0,93.756,33.351,107.21,81.103
	c1.118,3.969,4.729,6.562,8.658,6.562c0.808,0,1.63-0.11,2.445-0.34c4.785-1.348,7.57-6.319,6.222-11.103
	c-15.63-55.477-66.841-94.222-124.535-94.222c-57.695,0-108.906,38.746-124.535,94.222
	C58.323,137.094,61.108,142.065,65.893,143.413z M184.206,338.163c7.732,0,33.678-0.825,42.913-11.433
	c3.263-3.749,2.87-9.434-0.879-12.698c-3.729-3.247-9.376-2.874-12.646,0.821c-2.053,1.865-12.706,5.31-29.388,5.31
	c-16.686,0-27.34-3.446-29.391-5.312c-3.272-3.693-8.917-4.066-12.646-0.818c-3.749,3.265-4.141,8.95-0.876,12.698
	C150.53,337.339,176.475,338.163,184.206,338.163z M22.125,107.77l4.741,2.74c1.418,0.819,2.966,1.209,4.495,1.209
	c3.109,0,6.133-1.613,7.801-4.499c2.487-4.304,1.014-9.809-3.29-12.295l-4.741-2.74c-4.301-2.485-9.809-1.015-12.295,3.29
	C16.349,99.778,17.822,105.283,22.125,107.77z"/>
<g>
</g>
<g>
</g>
<g>
</g>
<g>
</g>
<g>
</g>
<g>
</g>
<g>
</g>
<g>
</g>
<g>
</g>
<g>
</g>
<g>
</g>
<g>
</g>
<g>
</g>
<g>
</g>
<g>
</g>
</svg>
